<svg xmlns="http://www.w3.org/2000/svg" width="500" height="540"><g transform="translate(250, 250)"><path d="M1.5308084989341916e-14,-250A250,250,0,1,1,-62.17247179121361,-242.1457902821578L-31.086235895606805,-121.0728951410789A125,125,0,1,0,7.654042494670958e-15,-125Z" fill="green" stroke="white" style="stroke-width: 2px;"></path><path d="M-62.17247179121361,-242.1457902821578A250,250,0,0,1,1.7612034995700555e-13,-250L8.806017497850278e-14,-125A125,125,0,0,0,-31.086235895606805,-121.0728951410789Z" fill="red" stroke="white" style="stroke-width: 2px;"></path><text transform="translate(23.499981293307005,186.0215064964646)" text-anchor="middle" font-size="16px" fill="white">24</text><text transform="translate(-23.49998129330695,-186.0215064964646)" text-anchor="middle" font-size="16px" fill="white">1</text><text text-anchor="middle" font-size="20px" font-weight="bold" fill="green">Total: 25</text></g><g transform="translate(200, 520)"><rect x="-40" y="0" width="20" height="20" fill="green"></rect><text x="-10" y="15" font-size="16px" fill="green">Accepted</text><rect x="60" y="0" width="20" height="20" fill="red"></rect><text x="90" y="15" font-size="16px" fill="red">Rejected</text></g></svg>