<svg xmlns="http://www.w3.org/2000/svg" width="500" height="540"><g transform="translate(250, 250)"><path d="M1.5308084989341916e-14,-250A250,250,0,1,1,-1.5308084989341916e-14,250A250,250,0,1,1,1.5308084989341916e-14,-250M-2.2962127484012872e-14,-125A125,125,0,1,0,2.2962127484012872e-14,125A125,125,0,1,0,-2.2962127484012872e-14,-125Z" fill="green" stroke="white" style="stroke-width: 2px;"></path><path d="M-4.5924254968025744e-14,-250L-2.2962127484012872e-14,-125Z" fill="red" stroke="white" style="stroke-width: 2px;"></path><text transform="translate(1.1481063742006436e-14,187.5)" text-anchor="middle" font-size="16px" fill="white">59</text><text transform="translate(-3.4443191226019305e-14,-187.5)" text-anchor="middle" font-size="16px" fill="white">0</text><text text-anchor="middle" font-size="20px" font-weight="bold" fill="green">Total: 59</text></g><g transform="translate(200, 520)"><rect x="-40" y="0" width="20" height="20" fill="green"></rect><text x="-10" y="15" font-size="16px" fill="green">Accepted</text><rect x="60" y="0" width="20" height="20" fill="red"></rect><text x="90" y="15" font-size="16px" fill="red">Rejected</text></g></svg>