<svg xmlns="http://www.w3.org/2000/svg" width="500" height="540"><g transform="translate(250, 250)"><path d="M1.5308084989341916e-14,-250A250,250,0,1,1,-63.41364597737707,-241.8237157597573L-31.706822988688536,-120.91185787987865A125,125,0,1,0,7.654042494670958e-15,-125Z" fill="green" stroke="white" style="stroke-width: 2px;"></path><path d="M-63.41364597737707,-241.8237157597573A250,250,0,0,1,-2.67968859893057e-13,-250L-1.339844299465285e-13,-125A125,125,0,0,0,-31.706822988688536,-120.91185787987865Z" fill="red" stroke="white" style="stroke-width: 2px;"></path><text transform="translate(23.976967815844958,185.96062759185864)" text-anchor="middle" font-size="16px" fill="white">47</text><text transform="translate(-23.976967815845146,-185.9606275918586)" text-anchor="middle" font-size="16px" fill="white">2</text><text text-anchor="middle" font-size="20px" font-weight="bold" fill="green">Total: 49</text></g><g transform="translate(200, 520)"><rect x="-40" y="0" width="20" height="20" fill="green"></rect><text x="-10" y="15" font-size="16px" fill="green">Accepted</text><rect x="60" y="0" width="20" height="20" fill="red"></rect><text x="90" y="15" font-size="16px" fill="red">Rejected</text></g></svg>