<svg xmlns="http://www.w3.org/2000/svg" width="500" height="540"><g transform="translate(250, 250)"><path d="M1.5308084989341916e-14,-250A250,250,0,1,1,-70.43313921035744,-239.87324340362434L-35.21656960517872,-119.93662170181217A125,125,0,1,0,7.654042494670958e-15,-125Z" fill="green" stroke="white" style="stroke-width: 2px;"></path><path d="M-70.43313921035744,-239.87324340362434A250,250,0,0,1,-4.5924254968025744e-14,-250L-2.2962127484012872e-14,-125A125,125,0,0,0,-35.21656960517872,-119.93662170181217Z" fill="red" stroke="white" style="stroke-width: 2px;"></path><text transform="translate(26.684032176240958,185.59152035267488)" text-anchor="middle" font-size="16px" fill="white">42</text><text transform="translate(-26.68403217624098,-185.59152035267488)" text-anchor="middle" font-size="16px" fill="white">2</text><text text-anchor="middle" font-size="20px" font-weight="bold" fill="green">Total: 44</text></g><g transform="translate(200, 520)"><rect x="-40" y="0" width="20" height="20" fill="green"></rect><text x="-10" y="15" font-size="16px" fill="green">Accepted</text><rect x="60" y="0" width="20" height="20" fill="red"></rect><text x="90" y="15" font-size="16px" fill="red">Rejected</text></g></svg>