<svg xmlns="http://www.w3.org/2000/svg" width="500" height="540"><g transform="translate(250, 250)"><path d="M1.5308084989341916e-14,-250A250,250,0,1,1,-73.68879360272595,-238.89320144653522L-36.844396801362976,-119.44660072326761A125,125,0,1,0,7.654042494670958e-15,-125Z" fill="green" stroke="white" style="stroke-width: 2px;"></path><path d="M-73.68879360272595,-238.89320144653522A250,250,0,0,1,1.7612034995700555e-13,-250L8.806017497850278e-14,-125A125,125,0,0,0,-36.844396801362976,-119.44660072326761Z" fill="red" stroke="white" style="stroke-width: 2px;"></path><text transform="translate(27.945424908032667,185.40577991721162)" text-anchor="middle" font-size="16px" fill="white">40</text><text transform="translate(-27.94542490803252,-185.40577991721165)" text-anchor="middle" font-size="16px" fill="white">2</text><text text-anchor="middle" font-size="20px" font-weight="bold" fill="green">Total: 42</text></g><g transform="translate(200, 520)"><rect x="-40" y="0" width="20" height="20" fill="green"></rect><text x="-10" y="15" font-size="16px" fill="green">Accepted</text><rect x="60" y="0" width="20" height="20" fill="red"></rect><text x="90" y="15" font-size="16px" fill="red">Rejected</text></g></svg>